HIERARCHY
ROOT Hips
{
 OFFSET 0.000000 0.000000 0.000000
 CHANNELS 6 Xposition Yposition Zposition Yrotation Xrotation Zrotation
 JOINT Chest
 {
  OFFSET 0.000000 10.366939 -0.000175
  CHANNELS 3 Yrotation Xrotation Zrotation
  JOINT Chest2
  {
   OFFSET 0.000000 11.433790 0.000318
   CHANNELS 3 Yrotation Xrotation Zrotation
   JOINT Chest3
   {
    OFFSET 0.000000 10.331133 0.000000
    CHANNELS 3 Yrotation Xrotation Zrotation
    JOINT Chest4
    {
     OFFSET 0.000000 10.331133 0.000000
     CHANNELS 3 Yrotation Xrotation Zrotation
     JOINT Neck
     {
      OFFSET 0.000000 14.530095 0.000000
      CHANNELS 3 Yrotation Xrotation Zrotation
      JOINT Head
      {
       OFFSET 0.000000 9.616255 0.000757
       CHANNELS 3 Yrotation Xrotation Zrotation
       End Site
       {
        OFFSET 0.000000 18.398191 0.000395
       }
      }
     }
     JOINT RightCollar
     {
      OFFSET -3.159467 8.107572 0.000000
      CHANNELS 3 Yrotation Xrotation Zrotation
      JOINT RightShoulder
      {
       OFFSET -14.759419 0.000000 0.000000
       CHANNELS 3 Yrotation Xrotation Zrotation
       JOINT RightElbow
       {
        OFFSET 0.000000 -31.561777 0.000000
        CHANNELS 3 Yrotation Xrotation Zrotation
        JOINT RightWrist
        {
         OFFSET 0.000000 -25.811607 0.000000
         CHANNELS 3 Yrotation Xrotation Zrotation
         End Site
         {
          OFFSET 0.000000 -19.296333 0.000000
         }
        }
       }
      }
     }
     JOINT LeftCollar
     {
      OFFSET 3.159467 8.107572 0.000000
      CHANNELS 3 Yrotation Xrotation Zrotation
      JOINT LeftShoulder
      {
       OFFSET 14.759419 0.000000 0.000000
       CHANNELS 3 Yrotation Xrotation Zrotation
       JOINT LeftElbow
       {
        OFFSET 0.000000 -31.561777 0.000000
        CHANNELS 3 Yrotation Xrotation Zrotation
        JOINT LeftWrist
        {
         OFFSET 0.000000 -25.811607 0.000000
         CHANNELS 3 Yrotation Xrotation Zrotation
         End Site
         {
          OFFSET 0.000000 -19.296333 0.000000
         }
        }
       }
      }
     }
    }
   }
  }
 }
 JOINT RightHip
 {
  OFFSET -8.420485 0.000859 0.000088
  CHANNELS 3 Yrotation Xrotation Zrotation
  JOINT RightKnee
  {
   OFFSET 0.000000 -43.611855 -0.000083
   CHANNELS 3 Yrotation Xrotation Zrotation
   JOINT RightAnkle
   {
    OFFSET 0.000000 -42.630478 -0.000140
    CHANNELS 3 Yrotation Xrotation Zrotation
    JOINT RightToe
    {
     OFFSET 0.000000 -7.539428 17.119853
     CHANNELS 3 Yrotation Xrotation Zrotation
     End Site
     {
      OFFSET 0.000000 -1.595212 6.940629
     }
    }
   }
  }
 }
 JOINT LeftHip
 {
  OFFSET 8.420485 0.000859 0.000088
  CHANNELS 3 Yrotation Xrotation Zrotation
  JOINT LeftKnee
  {
   OFFSET 0.000000 -43.611855 -0.000083
   CHANNELS 3 Yrotation Xrotation Zrotation
   JOINT LeftAnkle
   {
    OFFSET 0.000000 -42.630478 -0.000140
    CHANNELS 3 Yrotation Xrotation Zrotation
    JOINT LeftToe
    {
     OFFSET 0.000000 -7.539428 17.119853
     CHANNELS 3 Yrotation Xrotation Zrotation
     End Site
     {
      OFFSET 0.000000 -1.595212 6.940629
     }
    }
   }
  }
 }
}
MOTION
Frames: 12
Frame Time: 0.008333
408.376899 46.905485 122.178668 -79.696292 -15.007768 1.054317 1.320956 12.511241 -0.301477 0.260041 5.488718 -0.615807 0.260041 5.488718 -0.615807 0.200427 4.116283 -0.463843 -0.022194 11.637944 0.753498 -0.370360 -14.568368 1.454984 0.301136 4.091806 11.109828 2.668654 -24.550826 -25.066229 68.553011 -49.800465 -36.982212 20.282613 -8.864696 9.754119 0.935340 2.221971 -8.565990 -0.295963 -27.159029 13.229787 -51.888037 -32.701805 15.645338 -22.905346 0.239915 -13.850711 -9.874507 -78.491811 -11.534670 174.640386 67.214442 168.242714 2.426693 -19.326667 1.434888 -0.458406 0.762780 -0.205296 -18.849029 -79.519970 44.900706 -147.119159 63.105179 -148.657219 0.257578 -13.985417 -1.401643 -0.335553 -1.248473 -0.168617
408.377022 46.905070 122.176201 -79.691002 -15.018696 1.050927 1.315073 12.511360 -0.298147 0.258865 5.488709 -0.615097 0.258865 5.488709 -0.615097 0.199539 4.116277 -0.463301 -0.027988 11.645876 0.758777 -0.383660 -14.553506 1.467536 0.303270 4.095993 11.113588 2.660830 -24.555721 -25.055437 68.573981 -49.795351 -37.000054 20.268604 -8.876766 9.758232 0.940822 2.228480 -8.569458 -0.293247 -27.159707 13.237086 -51.893554 -32.689779 15.634495 -22.872186 0.226818 -13.825247 -9.887479 -78.482730 -11.527000 174.638726 67.214154 168.238837 2.432142 -19.324287 1.436460 -0.458814 0.762763 -0.207158 -18.845958 -79.511700 44.895439 -147.127308 63.106808 -148.662061 0.253870 -13.982019 -1.398287 -0.335089 -1.249799 -0.167554
408.378763 46.904133 122.174447 -79.678013 -15.019208 1.052625 1.301158 12.505902 -0.302315 0.259596 5.488624 -0.613809 0.259596 5.488624 -0.613809 0.200076 4.116214 -0.462342 -0.034107 11.654554 0.763480 -0.397321 -14.537257 1.479115 0.296450 4.091518 11.116476 2.662914 -24.554593 -25.046937 68.579790 -49.781413 -37.005055 20.255922 -8.881187 9.756766 0.942917 2.231180 -8.568053 -0.293872 -27.159994 13.237823 -51.861901 -32.701196 15.629977 -22.876466 0.226441 -13.834311 -9.881057 -78.485443 -11.543209 174.632087 67.211977 168.229519 2.422936 -19.324400 1.442983 -0.455569 0.764286 -0.208099 -18.801268 -79.517892 44.840154 -147.135257 63.113308 -148.663448 0.254220 -13.981442 -1.391567 -0.337948 -1.246140 -0.168887
408.383742 46.902481 122.178241 -79.593887 -15.012899 1.068150 1.210367 12.483670 -0.338616 0.259608 5.487222 -0.613039 0.259608 5.487222 -0.613039 0.200076 4.115162 -0.461764 -0.037799 11.665720 0.769076 -0.406676 -14.516410 1.491317 0.298553 4.098249 11.121708 2.654044 -24.558776 -25.037705 68.596760 -49.762559 -37.014846 20.244112 -8.887222 9.756748 0.942037 2.241714 -8.569406 -0.294427 -27.160932 13.248259 -51.846632 -32.676691 15.608147 -22.862881 0.207508 -13.804763 -9.809834 -78.505979 -11.703670 174.615080 67.208361 168.211751 2.387432 -19.307362 1.436070 -0.419966 0.751981 -0.193130 -18.675419 -79.537925 44.634161 -147.135670 63.115374 -148.661502 0.223601 -14.020756 -1.390961 -0.310108 -1.209810 -0.154789
408.385010 46.900815 122.177270 -79.586224 -15.016185 1.070841 1.204572 12.476390 -0.341486 0.262145 5.484956 -0.612439 0.262145 5.484956 -0.612439 0.201970 4.113460 -0.461337 -0.043534 11.679618 0.774382 -0.419779 -14.490463 1.503814 0.287482 4.104124 11.131878 2.658221 -24.563529 -25.033326 68.608015 -49.742477 -37.019364 20.230367 -8.887435 9.758698 0.928104 2.255463 -8.567759 -0.298258 -27.169268 13.260065 -51.800557 -32.679929 15.583335 -22.875658 0.209572 -13.797490 -9.808622 -78.506830 -11.718814 174.597356 67.205986 168.191459 2.394893 -19.311652 1.435897 -0.421786 0.757543 -0.195779 -18.653922 -79.536677 44.603745 -147.146901 63.120151 -148.670484 0.224266 -14.022718 -1.388639 -0.315478 -1.209435 -0.155707
408.387210 46.899432 122.176412 -79.572379 -15.021254 1.071557 1.194127 12.466920 -0.344183 0.262762 5.484206 -0.611026 0.262762 5.484206 -0.611026 0.202419 4.112898 -0.460283 -0.047183 11.688285 0.777855 -0.428160 -14.474279 1.511952 0.274802 4.105873 11.139232 2.654160 -24.571340 -25.022634 68.626325 -49.722553 -37.023222 20.217757 -8.892911 9.770745 0.923471 2.264764 -8.566406 -0.298919 -27.174151 13.258055 -51.789500 -32.642134 15.563005 -22.864404 0.189073 -13.771977 -9.811849 -78.508134 -11.732186 174.591198 67.202902 168.184531 2.393355 -19.309558 1.435486 -0.416018 0.758024 -0.195423 -18.615782 -79.534851 44.551740 -147.151263 63.126301 -148.670601 0.223814 -14.028867 -1.386407 -0.317896 -1.203711 -0.154898
408.388021 46.898093 122.172902 -79.563545 -15.029482 1.071274 1.190227 12.465119 -0.342061 0.262610 5.482847 -0.610556 0.262610 5.482847 -0.610556 0.202300 4.111879 -0.459929 -0.046642 11.699131 0.780409 -0.428074 -14.454116 1.516479 0.270153 4.108198 11.143833 2.641809 -24.578722 -25.016126 68.641540 -49.709530 -37.024104 20.216701 -8.895543 9.778213 0.920712 2.270321 -8.567018 -0.301266 -27.178750 13.257803 -51.745711 -32.627030 15.554031 -22.892876 0.180035 -13.784396 -9.812138 -78.503759 -11.741465 174.615781 67.202570 168.207799 2.425523 -19.309959 1.422950 -0.409729 0.759469 -0.190685 -18.594037 -79.527882 44.523213 -147.166373 63.133912 -148.682141 0.220400 -14.032797 -1.383514 -0.322799 -1.201741 -0.156327
408.389572 46.896094 122.172585 -79.561839 -15.039719 1.072165 1.189964 12.462836 -0.340324 0.261949 5.481653 -0.608670 0.261949 5.481653 -0.608670 0.201786 4.110985 -0.458510 -0.045546 11.709410 0.781405 -0.426258 -14.435030 1.517787 0.266006 4.115321 11.142270 2.640887 -24.590628 -25.004433 68.641645 -49.686312 -37.017117 20.210802 -8.901670 9.779781 0.921612 2.274315 -8.568082 -0.301938 -27.181153 13.250193 -51.740716 -32.570967 15.542334 -22.874329 0.153433 -13.763049 -9.830100 -78.499146 -11.728209 174.632572 67.204223 168.216964 2.419397 -19.306417 1.431949 -0.415965 0.760617 -0.193769 -18.572371 -79.521672 44.499660 -147.180360 63.134395 -148.694715 0.222118 -14.035624 -1.383683 -0.327401 -1.204262 -0.153928
408.389549 46.894224 122.172732 -79.549237 -15.049653 1.071721 1.176443 12.464747 -0.340393 0.261785 5.480889 -0.607452 0.261785 5.480889 -0.607452 0.201652 4.110413 -0.457595 -0.042116 11.717166 0.781352 -0.419548 -14.420675 1.516104 0.267004 4.113983 11.147287 2.640180 -24.597841 -25.002560 68.648844 -49.664195 -37.005921 20.207193 -8.911643 9.776062 0.922892 2.275165 -8.566761 -0.303709 -27.182571 13.236287 -51.707358 -32.544544 15.538646 -22.881845 0.151221 -13.764728 -9.815392 -78.489677 -11.757847 174.623195 67.200715 168.209337 2.403196 -19.316315 1.436469 -0.419848 0.767377 -0.192743 -18.555395 -79.513926 44.473925 -147.211920 63.144507 -148.721483 0.201798 -14.039502 -1.388379 -0.322578 -1.203854 -0.147896
408.389323 46.892072 122.172057 -79.545512 -15.062283 1.070861 1.170749 12.465018 -0.337278 0.262062 5.480323 -0.605316 0.262062 5.480323 -0.605316 0.201839 4.109989 -0.455996 -0.036560 11.726642 0.779656 -0.408028 -14.403173 1.510329 0.269044 4.119203 11.147264 2.635066 -24.609161 -25.001927 68.655079 -49.644719 -36.999943 20.201960 -8.926874 9.770994 0.925698 2.280676 -8.574701 -0.309413 -27.189086 13.232615 -51.698036 -32.486271 15.524447 -22.870505 0.138515 -13.745832 -9.799590 -78.477223 -11.776567 174.618814 67.199075 168.205639 2.406332 -19.323323 1.432699 -0.419915 0.771944 -0.188588 -18.529998 -79.506041 44.448065 -147.219973 63.143241 -148.723741 0.200045 -14.043876 -1.395922 -0.323027 -1.205195 -0.141767
408.390679 46.890287 122.171493 -79.535298 -15.065469 1.070415 1.160836 12.458875 -0.336675 0.260307 5.480558 -0.603904 0.260307 5.480558 -0.603904 0.200511 4.110167 -0.454923 -0.030254 11.734130 0.779652 -0.395833 -14.389353 1.507498 0.272019 4.122873 11.152435 2.635843 -24.616199 -25.006745 68.662557 -49.633604 -36.997864 20.198671 -8.931789 9.763728 0.924954 2.285142 -8.577961 -0.303567 -27.197538 13.226307 -51.674404 -32.458786 15.516885 -22.878712 0.135537 -13.754434 -9.795883 -78.475843 -11.791191 174.621195 67.198390 168.206599 2.426507 -19.328909 1.421285 -0.417600 0.775729 -0.183009 -18.517748 -79.502534 44.427098 -147.230313 63.150237 -148.729478 0.189788 -14.052635 -1.406019 -0.319576 -1.200341 -0.135337
408.391889 46.888011 122.171670 -79.525959 -15.073468 1.074544 1.148929 12.453602 -0.341579 0.260706 5.479145 -0.602986 0.260706 5.479145 -0.602986 0.200801 4.109107 -0.454238 -0.025296 11.741307 0.778859 -0.385887 -14.376100 1.503745 0.273359 4.133971 11.155802 2.637533 -24.620767 -25.010984 68.661952 -49.627633 -36.997616 20.192706 -8.940316 9.762687 0.925325 2.294020 -8.578493 -0.301666 -27.200747 13.213248 -51.680843 -32.390658 15.513915 -22.855389 0.113974 -13.730265 -9.768199 -78.474388 -11.830446 174.622180 67.193646 168.207825 2.428472 -19.331191 1.415274 -0.415997 0.776142 -0.180161 -18.476557 -79.495505 44.373584 -147.248952 63.158894 -148.740834 0.179035 -14.062030 -1.420923 -0.314568 -1.195392 -0.128873
